<svg xmlns="http://www.w3.org/2000/svg" viewBox="0 0 64 64">
  <defs>
    <linearGradient id="bg" x1="0" y1="0" x2="0.5" y2="1">
      <stop offset="0%" stop-color="#FFF5F7"/>
      <stop offset="100%" stop-color="#FFE8ED"/>
    </linearGradient>
    <linearGradient id="petal" x1="0" y1="0" x2="0" y2="1">
      <stop offset="0%" stop-color="#FCBCD0"/>
      <stop offset="100%" stop-color="#F48FB1"/>
    </linearGradient>
    <linearGradient id="center" x1="0" y1="0" x2="0" y2="1">
      <stop offset="0%" stop-color="#FFD54F"/>
      <stop offset="100%" stop-color="#FFB300"/>
    </linearGradient>
  </defs>
  <!-- Background -->
  <rect width="64" height="64" rx="14" fill="url(#bg)"/>
  <!-- Shadow -->
  <ellipse cx="33" cy="52" rx="16" ry="3" fill="#F8BBD0" opacity="0.3"/>
  <!-- Petals with notched tips -->
  <g transform="translate(32,30)">
    <path d="M0,-22 C5,-22 9,-16 9,-10 C9,-4 5,0 0,2 C-5,0 -9,-4 -9,-10 C-9,-16 -5,-22 0,-22Z M-3,-22 C-3,-24 3,-24 3,-22" fill="url(#petal)" transform="rotate(0)"/>
    <path d="M0,-22 C5,-22 9,-16 9,-10 C9,-4 5,0 0,2 C-5,0 -9,-4 -9,-10 C-9,-16 -5,-22 0,-22Z M-3,-22 C-3,-24 3,-24 3,-22" fill="url(#petal)" transform="rotate(72)"/>
    <path d="M0,-22 C5,-22 9,-16 9,-10 C9,-4 5,0 0,2 C-5,0 -9,-4 -9,-10 C-9,-16 -5,-22 0,-22Z M-3,-22 C-3,-24 3,-24 3,-22" fill="url(#petal)" transform="rotate(144)"/>
    <path d="M0,-22 C5,-22 9,-16 9,-10 C9,-4 5,0 0,2 C-5,0 -9,-4 -9,-10 C-9,-16 -5,-22 0,-22Z M-3,-22 C-3,-24 3,-24 3,-22" fill="url(#petal)" transform="rotate(216)"/>
    <path d="M0,-22 C5,-22 9,-16 9,-10 C9,-4 5,0 0,2 C-5,0 -9,-4 -9,-10 C-9,-16 -5,-22 0,-22Z M-3,-22 C-3,-24 3,-24 3,-22" fill="url(#petal)" transform="rotate(288)"/>
    <!-- Petal highlights -->
    <ellipse cx="0" cy="-13" rx="3" ry="6" fill="#FFFFFF" opacity="0.25" transform="rotate(0)"/>
    <ellipse cx="0" cy="-13" rx="3" ry="6" fill="#FFFFFF" opacity="0.25" transform="rotate(72)"/>
    <ellipse cx="0" cy="-13" rx="3" ry="6" fill="#FFFFFF" opacity="0.25" transform="rotate(144)"/>
    <ellipse cx="0" cy="-13" rx="3" ry="6" fill="#FFFFFF" opacity="0.25" transform="rotate(216)"/>
    <ellipse cx="0" cy="-13" rx="3" ry="6" fill="#FFFFFF" opacity="0.25" transform="rotate(288)"/>
  </g>
  <!-- Center circle -->
  <circle cx="32" cy="30" r="8" fill="#FFFFFF"/>
  <circle cx="32" cy="30" r="6" fill="url(#center)"/>
  <!-- Center dots -->
  <circle cx="30" cy="28" r="1" fill="#FFFFFF" opacity="0.6"/>
  <circle cx="34" cy="29" r="0.7" fill="#FFFFFF" opacity="0.4"/>
</svg>